<?xml version="1.0" encoding="utf-8"?>
<!-- Generator: Adobe Illustrator 27.3.1, SVG Export Plug-In . SVG Version: 6.00 Build 0)  -->
<svg version="1.1" id="Calque_1" xmlns="http://www.w3.org/2000/svg" xmlns:xlink="http://www.w3.org/1999/xlink" x="0px" y="0px"
	 viewBox="0 0 203.25 203.25" style="enable-background:new 0 0 203.25 203.25;" xml:space="preserve">
<style type="text/css">
	.st0{fill:#00CE43;}
	.st1{clip-path:url(#SVGID_00000053504042313792053830000013942197650197605035_);}
</style>
<g>
	<g>
		<defs>
			<circle id="SVGID_1_" cx="101.63" cy="101.62" r="99.62"/>
		</defs>
		<clipPath id="SVGID_00000045611225725597291110000008972875415782081966_">
			<use xlink:href="#SVGID_1_"  style="overflow:visible;"/>
		</clipPath>
		<g style="clip-path:url(#SVGID_00000045611225725597291110000008972875415782081966_);">
			<g>
				<path class="st0" d="M97.19,176.44c0-0.99,0-1.98,0-2.96H31.5c-0.17,0.49-0.32,0.98-0.47,1.46c-0.15,0.5-0.3,1-0.45,1.5H97.19z"
					/>
				<path class="st0" d="M97.16,191.25H35.12l0.68,0.06c2.85,0.27,5.69,0.54,8.54,0.79c0.63,0.05,1.26,0.08,1.89,0.11
					c0.67,0.03,1.35,0.05,2.02,0.11c1.43,0.13,2.85,0.27,4.27,0.41c1.9,0.19,3.86,0.38,5.8,0.54c1.3,0.1,2.64,0.16,3.94,0.22
					c0.92,0.04,1.84,0.08,2.76,0.13c2.6,0.16,5.2,0.32,7.81,0.48c0.63,0.04,1.25,0.08,1.88,0.12h22.45V191.25z"/>
				<path class="st0" d="M76.28,164.58c-2.99-0.78-6.03-1.77-9.15-2.96H36.81c-0.08,0.17-0.17,0.34-0.25,0.51
					c-0.4,0.82-0.8,1.64-1.22,2.45H76.28z"/>
				<path class="st0" d="M97.16,188.29v-2.96H28.09c-0.09,0.32-0.17,0.64-0.26,0.95c-0.18,0.66-0.32,1.33-0.45,2.01H97.16z"/>
				<path class="st0" d="M50,152.73c-1.14-0.79-2.25-1.62-3.33-2.43c-0.24-0.18-0.47-0.35-0.71-0.53h-1.63
					c-0.77,0.98-1.51,1.97-2.24,2.96H50z"/>
				<path class="st0" d="M97.16,182.36v-0.94c0-0.09,0.01-0.19,0.03-0.27l0-1.75H29.73c-0.29,1.02-0.57,2.01-0.83,2.96H97.16z"/>
				<path class="st0" d="M60.26,158.66c-1.89-0.92-3.76-1.9-5.59-2.96H40.06c-0.62,0.97-1.21,1.95-1.75,2.96H60.26z"/>
				<path class="st0" d="M97.19,170.51c0-0.97,0-1.94,0-2.91c0-0.01,0-0.03,0-0.05h-63.3c-0.47,1.02-0.9,2-1.29,2.96H97.19z"/>
			</g>
			<g>
				<path class="st0" d="M80.63,134.96c-0.62-0.15-1.24-0.3-1.85-0.46c-2.95-0.8-5.91-1.65-8.83-2.5H52.6
					c-0.64,0.62-1.25,1.26-1.83,1.97c-0.26,0.32-0.52,0.66-0.77,0.99H80.63z"/>
				<path class="st0" d="M147.95,137.92H47.75c-0.13,0.17-0.25,0.34-0.38,0.5c0.42,0.3,0.84,0.61,1.26,0.91
					c0.71,0.52,1.44,1.04,2.18,1.55h93.19C145.38,139.95,146.69,138.96,147.95,137.92z"/>
				<path class="st0" d="M146.84,131.99c-2.11,0.22-4.24,0.39-6.37,0.43c-4.91,0.08-9.9,0-14.72-0.08
					c-1.22-0.02-2.44-0.04-3.66-0.06c-1.46-0.02-2.92-0.13-4.34-0.23l-0.67-0.05h-7.32c-0.31,0.06-0.62,0.14-0.93,0.23
					c-3.21,0.98-6.5,1.87-9.68,2.73h52.08c0.96-0.95,1.88-1.94,2.75-2.96H146.84z"/>
				<path class="st0" d="M132.98,146.81c1.75-0.73,3.54-1.56,5.37-2.52c0.27-0.14,0.53-0.3,0.8-0.44H55.63
					c2.17,1.19,4.29,2.17,6.41,2.96H132.98z"/>
				<path class="st0" d="M84.09,152.07c0.94,0.05,1.88,0.11,2.82,0.18c1.42,0.1,2.88,0.2,4.31,0.24c1.11,0.03,2.26-0.01,3.37-0.04
					c1.04-0.03,2.12-0.07,3.2-0.05c5.02,0.08,10.2,0.16,15.24-0.6c3.4-0.52,6.9-1.14,10.7-1.9c0.2-0.04,0.4-0.09,0.59-0.14H70.55
					c0.19,0.05,0.38,0.11,0.56,0.15C75.18,150.9,79.58,151.84,84.09,152.07z"/>
				<path class="st0" d="M60.2,129.03c-0.29-0.1-0.58-0.2-0.89-0.3c-1-0.34-1.88-0.25-2.79,0.27c-0.02,0.01-0.03,0.02-0.05,0.03
					H60.2z"/>
			</g>
			<path class="st0" d="M191.46,137.43c0.94-0.07,1.85-0.13,2.74-0.13c1.35,0,2.66,0.13,3.99,0.54l0.43,0.13
				c0.87,0.27,1.76,0.55,2.64,0.85v-1.75c-1.5-0.84-3.02-1.87-4.6-3.09c-2.01-1.55-4.08-3.3-5.62-5.6c-1.4-2.08-2.53-3.81-3.56-5.46
				c-0.08-0.12-0.15-0.25-0.22-0.38c-1.01,3.72-2.29,6.51-4.06,8.9l0.25,0.2c0.38,0.31,0.77,0.62,1.16,0.92
				c0.67,0.51,1.34,1.01,2.01,1.51c1.3,0.97,2.64,1.98,3.95,3C190.94,137.41,191.17,137.46,191.46,137.43z"/>
			<g>
				<path class="st0" d="M165.11,49.03c1.28,0.96,2.56,1.95,3.84,2.96h32.3v-2.96H165.11z"/>
				<path class="st0" d="M76.14,28.29c0.89-0.3,1.77-0.58,2.64-0.87c0.63-0.2,1.26-0.41,1.89-0.61c0.74-0.24,1.48-0.4,2.21-0.54
					l0.4-0.08c0.35-0.07,0.7-0.15,1.05-0.23c1.03-0.23,2.09-0.46,3.17-0.59l0.29-0.03H2v2.96H76.14z"/>
				<path class="st0" d="M188.77,54.96c0.07,0.06,0.13,0.14,0.19,0.22c0.2,0.32,0.23,0.72,0.08,1.06c-0.13,0.28-0.24,0.56-0.36,0.83
					c-0.12,0.28-0.24,0.57-0.37,0.85h12.94v-2.96H188.77z"/>
				<path class="st0" d="M156.87,43.11c1.43,0.96,2.84,1.96,4.23,2.96h40.16v-2.96H156.87z"/>
				<path class="st0" d="M28.55,54.96c0.83,0.25,1.67,0.49,2.5,0.75c1.01,0.31,2.02,0.62,3.04,0.91c0.49-0.55,0.97-1.1,1.46-1.66
					H28.55z"/>
				<path class="st0" d="M114.61,25.33c0.54,0.08,1.07,0.17,1.57,0.25c1.4,0.22,2.76,0.6,4.08,0.97c0.46,0.13,0.92,0.26,1.38,0.38
					l0.98,0.25c1.24,0.32,2.53,0.65,3.78,1.07l0.12,0.04h74.72v-2.96H114.61z"/>
				<rect x="2" y="7.56" class="st0" width="199.25" height="2.96"/>
				<rect x="2" y="13.48" class="st0" width="199.25" height="2.96"/>
				<path class="st0" d="M186.56,60.89c-0.6,0.95-1.22,1.94-1.87,2.96h16.56v-2.96H186.56z"/>
				<path class="st0" d="M147.26,37.18c1.63,0.93,3.29,1.91,4.99,2.96h49.01v-2.96H147.26z"/>
				<path class="st0" d="M134.87,31.26c0.37,0.15,0.75,0.29,1.12,0.44c2.06,0.84,3.94,1.68,5.69,2.52h59.57v-2.96H134.87z"/>
				<path class="st0" d="M173.94,56.08l1.74-0.21c1.94-0.24,3.89-0.48,5.84-0.69c0.73-0.08,1.47-0.15,2.2-0.21H172.5
					c0.32,0.32,0.62,0.64,0.88,0.95C173.52,56.08,173.55,56.12,173.94,56.08z"/>
				<path class="st0" d="M190.09,108.29c-0.03,1-0.09,1.99-0.19,2.96h11.36v-2.96H190.09z"/>
				<path class="st0" d="M189.47,114.22c-0.11,0.64-0.23,1.28-0.38,1.9c-0.1,0.44-0.12,0.64-0.12,0.73c0.1,0.09,0.33,0.22,0.54,0.34
					h11.73v-2.96H189.47z"/>
				<path class="st0" d="M194.55,120.14c0.25,0.16,0.52,0.31,0.77,0.47c1.25,0.8,2.49,1.64,3.71,2.49h2.22v-2.96H194.55z"/>
				<path class="st0" d="M2,161.62v1.59c0.64-0.54,1.28-1.06,1.92-1.59H2z"/>
				<path class="st0" d="M190.03,102.37c0.04,0.96,0.07,1.95,0.09,2.96h11.14v-2.96H190.03z"/>
				<path class="st0" d="M182.78,66.81c-0.32,0.49-0.64,0.98-0.97,1.47c-0.41,0.62-0.61,1.03-0.57,1.49h20v-2.96H182.78z"/>
				<path class="st0" d="M182.58,72.74c0.45,0.97,0.88,1.96,1.27,2.96h17.39v-2.96H182.58z"/>
				<path class="st0" d="M184.96,78.66c0.35,0.98,0.68,1.97,1.01,2.96h15.28v-2.96H184.96z"/>
				<path class="st0" d="M186.96,84.59c0.3,0.9,0.59,1.8,0.86,2.72c0.02,0.08,0.04,0.16,0.06,0.24h13.37v-2.96H186.96z"/>
				<path class="st0" d="M189.52,96.44c0.12,0.96,0.23,1.94,0.31,2.96h11.41v-2.96H189.52z"/>
				<path class="st0" d="M188.45,90.51c0.23,0.96,0.44,1.95,0.62,2.96h12.18v-2.96H188.45z"/>
				<rect x="2" y="19.41" class="st0" width="199.25" height="2.96"/>
				<path class="st0" d="M24.59,129.03c-0.59-0.51-1.11-1.15-1.54-1.92c-0.19-0.34-0.36-0.69-0.51-1.04H2v2.96H24.59z"/>
				<path class="st0" d="M21.79,123.11c-0.03-0.26-0.06-0.52-0.06-0.79c-0.02-0.74,0.02-1.47,0.1-2.18H2v2.96H21.79z"/>
				<path class="st0" d="M22.4,117.18c0.28-1.03,0.63-2.02,1.02-2.96H2v2.96H22.4z"/>
				<path class="st0" d="M24.8,111.25c0.1-0.19,0.19-0.38,0.29-0.57c0.09-0.18,0.22-0.42,0.23-0.52c-0.02-0.62-0.04-1.25-0.07-1.88
					H2v2.96H24.8z"/>
				<path class="st0" d="M25.08,105.33l0-0.04c-0.01-0.2-0.04-0.4-0.06-0.59c-0.04-0.32-0.08-0.65-0.09-1
					c0-0.42-0.01-0.86-0.01-1.32H2v2.96H25.08z"/>
				<path class="st0" d="M31.17,134.96c-0.77-0.95-1.55-1.9-2.31-2.85c-0.03-0.04-0.06-0.07-0.1-0.11H2v2.96H31.17z"/>
				<path class="st0" d="M7.53,158.66c1.21-0.98,2.47-1.96,3.79-2.96H2v2.96H7.53z"/>
				<rect x="2" y="3.11" class="st0" width="199.25" height="1.48"/>
				<path class="st0" d="M24.49,146.81c1.43-0.9,2.87-1.79,4.32-2.65c0.18-0.11,0.37-0.2,0.55-0.31H2v2.96H24.49z"/>
				<path class="st0" d="M15.38,152.73c1.43-0.99,2.9-1.95,4.47-2.96H2v2.96H15.38z"/>
				<polygon class="st0" points="34.97,140.88 35.67,140.51 33.57,137.92 2,137.92 2,140.88 				"/>
				<path class="st0" d="M44.43,46.07c0.13-0.11,0.27-0.22,0.4-0.33c1.12-0.9,2.25-1.77,3.39-2.63H2v2.96H44.43z"/>
				<path class="st0" d="M24.9,99.4c0-0.96-0.01-1.95-0.01-2.96H2v2.96H24.9z"/>
				<path class="st0" d="M6.56,52l-0.43-1.44c-0.1-0.34-0.04-0.7,0.17-0.98c0.21-0.28,0.54-0.45,0.89-0.45
					c0.05,0,0.11-0.01,0.17-0.01c0.28-0.02,0.7-0.06,1.13,0.07c1.2,0.34,2.39,0.69,3.59,1.05c0.98,0.29,1.96,0.58,2.94,0.86
					c1.06,0.3,2.12,0.6,3.18,0.9H38.2c0.24-0.25,0.46-0.51,0.7-0.76c0.66-0.67,1.41-1.42,2.22-2.21H2V52H6.56z"/>
				<polygon class="st0" points="8.34,57.92 7.45,54.96 2,54.96 2,57.92 				"/>
				<path class="st0" d="M62.02,34.22c0.04-0.02,0.09-0.05,0.13-0.07c2.06-1.06,4.18-2.01,6.28-2.89H2v2.96H62.02z"/>
				<path class="st0" d="M52.35,40.15c0.33-0.22,0.65-0.45,0.98-0.67c1.26-0.85,2.43-1.6,3.53-2.29H2v2.96H52.35z"/>
				<path class="st0" d="M10.62,63.85c-0.04-0.08-0.08-0.17-0.12-0.25c-0.24-0.53-0.36-1.05-0.49-1.56
					c-0.04-0.17-0.08-0.33-0.13-0.5c-0.06-0.22-0.12-0.43-0.18-0.65H2v2.96H10.62z"/>
				<path class="st0" d="M25.08,93.48c-0.01-0.24-0.03-0.82-0.21-1.13l-0.23-0.43c-0.25-0.46-0.51-0.93-0.77-1.4H2v2.96H25.08z"/>
				<path class="st0" d="M13.36,69.77c-0.25-0.58-0.51-1.18-0.76-1.75c-0.17-0.41-0.36-0.81-0.55-1.21H2v2.96H13.36z"/>
				<path class="st0" d="M21.99,87.55c-0.64-0.91-1.09-1.87-1.53-2.8c-0.03-0.05-0.05-0.11-0.08-0.16H2v2.96H21.99z"/>
				<path class="st0" d="M18.89,81.63c-0.51-0.99-1.01-1.97-1.49-2.96H2v2.96H18.89z"/>
				<path class="st0" d="M15.99,75.7c-0.46-0.99-0.9-1.98-1.33-2.96H2v2.96H15.99z"/>
			</g>
			<g>
				<path class="st0" d="M165.27,57.14c1.38-0.17,2.76-0.34,4.14-0.51c-0.41-0.37-0.81-0.73-1.23-1.06c-0.26-0.2-0.53-0.4-0.79-0.61
					H39.67c-0.77,0.79-1.52,1.56-2.21,2.28c-0.1,0.11-0.21,0.24-0.31,0.39c0.26,0.07,0.52,0.15,0.78,0.23l0.23,0.07h120.88
					C161.11,57.66,163.19,57.39,165.27,57.14z"/>
				<path class="st0" d="M126.16,62.87c1.72-0.32,3.46-0.58,5-0.82c1.18-0.18,2.36-0.35,3.54-0.52c1.43-0.21,2.85-0.42,4.28-0.64
					H48.36c0.24,0.07,0.49,0.14,0.73,0.21c1.45,0.42,2.91,0.85,4.36,1.28l5.01,1.47h62.59C122.72,63.52,124.44,63.18,126.16,62.87z"
					/>
				<path class="st0" d="M155.56,46.07c-1.46-0.99-3.01-1.97-4.63-2.96H53.51c-0.39,0.27-0.77,0.54-1.14,0.8
					c-0.99,0.7-1.95,1.43-2.89,2.17H155.56z"/>
				<path class="st0" d="M103.51,67.39c0.87-0.2,1.74-0.39,2.61-0.58H68.54c2.31,0.68,4.62,1.37,6.93,2.06
					c1.01,0.3,2.02,0.6,3.03,0.9h15.25C96.96,68.96,100.25,68.13,103.51,67.39z"/>
				<path class="st0" d="M163.51,52c-0.68-0.52-1.35-1.05-2.02-1.58c-0.58-0.46-1.18-0.92-1.78-1.38H45.91
					c-1.13,0.99-2.2,1.98-3.23,2.96H163.51z"/>
				<path class="st0" d="M145.85,40.15c-1.76-0.99-3.62-1.99-5.57-2.96H63.07c-1.79,0.95-3.49,1.96-5.09,2.96H145.85z"/>
				<path class="st0" d="M133.68,34.22c-0.89-0.35-1.8-0.7-2.71-1.01c-0.69-0.24-1.37-0.48-2.05-0.72
					c-1.17-0.41-2.36-0.83-3.55-1.23H77c-0.21,0.06-0.42,0.12-0.62,0.19c-2.37,0.75-4.72,1.77-7,2.77H133.68z"/>
				<path class="st0" d="M112.3,28.29c-2.35-0.36-4.81-0.63-7.32-0.73c-3.92-0.16-8.08-0.26-12.21,0.28
					c-1.01,0.13-2.02,0.29-3.02,0.45H112.3z"/>
			</g>
			<g>
				<path class="st0" d="M89.75,133.38c0.92,0.18,1.94,0.08,3.28-0.3l3.12-0.9c0.22-0.06,0.45-0.13,0.67-0.19H82.6
					c1.61,0.35,3.24,0.66,4.83,0.96C88.2,133.09,88.98,133.24,89.75,133.38z"/>
				<path class="st0" d="M109.99,128.54c1.21-0.22,2.19-0.28,3.09-0.2c4.27,0.37,8.06,0.59,11.62,0.69h14.44
					c2.03-0.03,4.07-0.09,6.08-0.21c2.85-0.17,5.77-0.72,8.58-1.25l1.57-0.29c0.55-0.1,1.13-0.38,1.74-0.67
					c0.38-0.19,0.78-0.38,1.2-0.54H61.74c1.02,0.32,2.05,0.63,3.06,0.93c0.81,0.24,1.63,0.48,2.44,0.73
					c0.59,0.18,1.19,0.37,1.78,0.56c0.81,0.26,1.62,0.51,2.44,0.75h36.08C108.32,128.86,109.13,128.69,109.99,128.54z"/>
				<path class="st0" d="M173.71,137.92h-20.99c-0.88,0.83-1.81,1.67-2.81,2.53c-0.17,0.15-0.35,0.29-0.53,0.43h21.21
					c1-0.86,1.93-1.73,2.8-2.61C173.49,138.15,173.6,138.03,173.71,137.92z"/>
				<path class="st0" d="M166.82,143.85h-21.44c-1.49,1-3.11,1.98-4.9,2.96h21.83c0.63-0.38,1.26-0.76,1.87-1.16
					C165.11,145.05,165.99,144.45,166.82,143.85z"/>
				<path class="st0" d="M143.28,120.14c-0.82,0.72-1.73,1.35-2.78,1.84c-2.7,1.26-5.1,1.44-7.33,0.55
					c-1.81-0.73-3.61-1.54-5.41-2.39h-31.6c0.11,0.09,0.2,0.19,0.26,0.26c0.33,0.43,0.3,0.84,0.26,1.05
					c-0.12,0.54-0.26,1.08-0.41,1.65h87.28c0.34-0.96,0.63-1.95,0.93-2.96H143.28z"/>
				<path class="st0" d="M160.25,126.07c0.09,0.06,0.18,0.12,0.25,0.2c0.23,0.25,0.33,0.6,0.27,0.94c-0.01,0.07-0.02,0.13-0.02,0.2
					c-0.03,0.29-0.06,0.69-0.29,1.07c-0.11,0.19-0.23,0.37-0.35,0.55h20.53c0.56-0.96,1.1-1.95,1.63-2.96H160.25z"/>
				<path class="st0" d="M178.72,131.99h-20.68c-0.74,1-1.55,1.98-2.43,2.96h20.75c0.52-0.62,1.04-1.24,1.58-1.9
					C178.2,132.71,178.46,132.35,178.72,131.99z"/>
				<path class="st0" d="M64.93,151.37c-1.45-0.52-2.88-1.04-4.29-1.6h-9.17c1.08,0.73,2.15,1.41,3.23,2.05
					c0.39,0.23,0.77,0.46,1.16,0.69c0.13,0.08,0.26,0.15,0.38,0.23h12.99C67.71,152.3,66.28,151.86,64.93,151.37z"/>
				<path class="st0" d="M150.97,152.73c1.17-0.52,2.3-1.05,3.38-1.62l1.32-0.68c0.42-0.22,0.85-0.44,1.27-0.66h-22.61
					c-2.59,1.05-5.08,1.87-7.15,2.5c-0.52,0.16-1.04,0.31-1.58,0.46H150.97z"/>
				<path class="st0" d="M40.06,111.25c-0.23-0.21-0.46-0.41-0.68-0.62l-0.55-0.52c-0.63-0.59-1.26-1.2-1.89-1.82h-8.48
					c0.04,0.31,0.07,0.61,0.11,0.92c0.09,0.7,0.02,1.37-0.2,2.04H40.06z"/>
				<path class="st0" d="M33.18,128.51c0.02-0.28,0.13-0.79,0.54-1.13c0.39-0.32,0.86-0.58,1.37-0.75c0.58-0.2,1.14-0.38,1.71-0.56
					H26.52c0.62,0.65,1.42,1.18,2.44,1.59c0.62,0.25,1.22,0.71,1.65,1.25c0.03,0.04,0.06,0.08,0.09,0.12h2.51
					C33.18,128.87,33.16,128.69,33.18,128.51z"/>
				<path class="st0" d="M94.11,120.31c0.06-0.06,0.14-0.11,0.21-0.16H25.13c-0.01,0.07-0.02,0.14-0.03,0.21
					c-0.12,1.02-0.11,1.94,0.02,2.76h68.5C93.31,122.09,93.47,120.94,94.11,120.31z"/>
				<path class="st0" d="M180.31,75.7c-0.27-0.73-0.54-1.45-0.82-2.18c-0.1-0.26-0.22-0.52-0.36-0.79h-0.34
					c-0.07,0.1-0.13,0.2-0.2,0.31c-0.31,0.47-0.62,0.94-0.95,1.4c-0.3,0.42-0.61,0.84-0.92,1.26H180.31z"/>
				<path class="st0" d="M184.65,87.55c-0.09-0.38-0.16-0.77-0.26-1.14c-0.14-0.59-0.41-1.19-0.69-1.82h-13.43l-1.96,2.7
					c-0.06,0.09-0.13,0.17-0.19,0.26H184.65z"/>
				<path class="st0" d="M185.89,93.48c-0.1-0.47-0.19-0.94-0.29-1.41c-0.1-0.51-0.21-1.03-0.31-1.55h-19.32
					c-0.45,0.62-0.9,1.24-1.35,1.86c-0.27,0.37-0.55,0.74-0.83,1.11H185.89z"/>
				<path class="st0" d="M115.62,114.22H66.73c-0.61,0.39-1.23,0.78-1.84,1.18c-0.99,0.64-2.24,1.36-3.68,1.79h12.67
					c0.06-0.12,0.15-0.22,0.25-0.31l0.18-0.15c0.45-0.39,1.13-0.34,1.54,0.1l0.34,0.37h45.41
					C119.46,116.14,117.49,115.16,115.62,114.22z"/>
				<path class="st0" d="M38.3,134.96c-0.19-0.18-0.37-0.37-0.56-0.55c-0.77-0.77-1.5-1.59-2.21-2.41h-2.55
					c0.76,0.99,1.53,1.99,2.32,2.96H38.3z"/>
				<path class="st0" d="M48.2,117.18c-1.59-0.92-3.1-1.91-4.52-2.96H26.95c-0.48,1.02-0.86,2-1.16,2.96H48.2z"/>
				<path class="st0" d="M34.18,105.33c-0.81-0.97-1.59-1.96-2.35-2.96h-3.75c0.02,1.01,0.06,2,0.12,2.96H34.18z"/>
				<path class="st0" d="M44.97,140.88c-1.26-0.95-2.44-1.95-3.56-2.96h-3.57c0.93,1.04,1.87,2.02,2.82,2.96H44.97z"/>
				<path class="st0" d="M54.44,146.81c-1.71-0.95-3.37-1.95-5-2.96h-5.6c1.2,1.05,2.39,2.04,3.57,2.96H54.44z"/>
				<path class="st0" d="M97.81,163.95c4.45-0.26,9.06-0.53,13.53-1.17c2.37-0.34,4.78-0.73,7.24-1.17H78.12
					c1.83,0.46,3.76,0.87,5.83,1.26C89.21,163.86,93.61,164.2,97.81,163.95z"/>
				<path class="st0" d="M132.52,158.66c2.4-0.63,4.79-1.31,7.13-1.99l1.48-0.43c0.62-0.18,1.22-0.36,1.81-0.54h-39.49
					c-1.21,0.07-2.43,0.14-3.64,0.22c-0.02,0-0.05,0-0.07,0c-0.24,0-0.47-0.08-0.66-0.22l-1.84,0c-1.86,0-3.71,0.01-5.57-0.01
					c-0.05,0-0.11,0-0.16,0H61.88c2.41,1.08,4.84,2.07,7.05,2.96H132.52z"/>
				<path class="st0" d="M185.97,115.42c0.05-0.4,0.1-0.8,0.15-1.2h-37.86c-0.59,0.79-1.18,1.58-1.78,2.36
					c-0.15,0.2-0.31,0.4-0.47,0.61h39.38c0.16-0.49,0.33-0.98,0.52-1.46C185.93,115.66,185.95,115.56,185.97,115.42z"/>
				<path class="st0" d="M109.84,111.25c-1.92-0.99-3.84-1.97-5.76-2.96H75.51c-0.79,0.68-1.68,1.35-2.65,1.99
					c-0.5,0.33-1.01,0.65-1.51,0.97H109.84z"/>
				<path class="st0" d="M98.34,105.33c-0.78-0.4-1.56-0.81-2.34-1.21c-0.32-0.16-0.63-0.33-0.95-0.5
					c-0.91-0.48-1.77-0.94-2.65-1.25h-6.95c-0.59,0.2-1.17,0.44-1.75,0.74c-0.73,0.38-1.47,0.76-2.16,1.16l-0.84,0.49
					c-0.33,0.19-0.66,0.38-0.98,0.57H98.34z"/>
				<path class="st0" d="M152.71,108.29l-2.22,2.96h36.01c0.12-0.99,0.23-1.98,0.31-2.96H152.71z"/>
				<path class="st0" d="M157.15,102.37c-0.74,0.99-1.48,1.98-2.22,2.96h32.03c0.03-0.99,0.06-1.98,0.07-2.96H157.15z"/>
				<path class="st0" d="M186.98,99.4c-0.05-0.51-0.12-1.01-0.2-1.47c-0.08-0.49-0.18-0.99-0.28-1.49h-24.93
					c-0.74,0.99-1.47,1.98-2.21,2.96H186.98z"/>
				<path class="st0" d="M29.64,99.4c-0.53-0.73-1.05-1.47-1.55-2.19c0,0.05,0,0.09,0,0.14c-0.01,0.7-0.02,1.38-0.02,2.05H29.64z"/>
				<path class="st0" d="M182.54,81.63c-0.26-0.68-0.51-1.37-0.77-2.05c-0.11-0.3-0.23-0.61-0.34-0.91h-6.85
					c-0.72,0.99-1.43,1.98-2.15,2.96H182.54z"/>
			</g>
			<g>
				<path class="st0" d="M46.49,63.85c-2.94-0.92-5.88-1.85-8.82-2.78l-0.57-0.18h-5.98c0.28,0.48,0.56,0.97,0.83,1.45
					c0.28,0.5,0.56,1.01,0.85,1.51L46.49,63.85L46.49,63.85z"/>
				<path class="st0" d="M58.11,69.77c-0.26-0.61-0.53-1.21-0.79-1.82c-0.26-0.61-0.57-0.93-1.05-1.14H34.46
					c0.55,0.99,1.11,1.97,1.66,2.96H58.11z"/>
				<path class="st0" d="M67.73,110.01c0.81-0.56,1.63-1.13,2.43-1.72H58.87c0.47,0.71,0.94,1.41,1.41,2.11l0.57,0.85h4.92
					C66.44,110.85,67.09,110.44,67.73,110.01z"/>
				<path class="st0" d="M72.92,102.75c-0.06-0.13-0.11-0.26-0.17-0.39H55.08c0.15,0.24,0.29,0.48,0.44,0.72
					c0.46,0.75,0.93,1.5,1.41,2.24h17.12C73.67,104.47,73.3,103.61,72.92,102.75z"/>
				<path class="st0" d="M68.6,93.29c-0.44-0.92-0.87-1.85-1.31-2.77h-19.3c0.37,0.63,0.75,1.26,1.12,1.89
					c0.21,0.36,0.43,0.72,0.64,1.08h18.94C68.66,93.41,68.63,93.35,68.6,93.29z"/>
				<path class="st0" d="M60.69,75.7c-0.43-0.99-0.86-1.98-1.29-2.96H37.79c0.55,0.99,1.11,1.98,1.66,2.96H60.69z"/>
				<path class="st0" d="M65.92,87.55c-0.45-0.99-0.89-1.97-1.33-2.96H44.48c0.58,1,1.17,1.99,1.75,2.96H65.92z"/>
				<path class="st0" d="M71.45,99.4c-0.21-0.48-0.43-0.96-0.64-1.43c-0.24-0.51-0.48-1.02-0.72-1.53H51.51
					c0.59,0.99,1.18,1.97,1.77,2.96H71.45z"/>
				<path class="st0" d="M63.29,81.63l-0.43-0.97c-0.29-0.66-0.58-1.33-0.88-1.99H41.11c0.55,0.99,1.11,1.98,1.66,2.96H63.29z"/>
			</g>
			<g>
				<path class="st0" d="M144.35,96.44h-20.79c0.07,0.12,0.13,0.24,0.19,0.36c0.48,0.86,0.97,1.73,1.47,2.61h20.96
					C145.57,98.42,144.96,97.43,144.35,96.44z"/>
				<path class="st0" d="M138.1,86.14c-0.32-0.52-0.64-1.04-0.96-1.56h-20.08c0.51,0.89,1.02,1.78,1.51,2.67
					c0.06,0.1,0.11,0.2,0.16,0.3h20.21C138.66,87.08,138.38,86.61,138.1,86.14z"/>
				<path class="st0" d="M142.39,93.27c-0.56-0.92-1.11-1.84-1.66-2.76h-20.38c0.29,0.53,0.57,1.07,0.86,1.59
					c0.25,0.46,0.5,0.91,0.74,1.37h20.56C142.47,93.41,142.43,93.34,142.39,93.27z"/>
				<path class="st0" d="M144.24,114.22H133.9c0.04,0.07,0.09,0.15,0.13,0.22c0.54,0.91,1.09,1.83,1.63,2.74h5.45
					C142.26,116.29,143.29,115.27,144.24,114.22z"/>
				<path class="st0" d="M149.89,105.33c-0.49-0.8-1-1.61-1.5-2.39c-0.12-0.19-0.24-0.38-0.36-0.57h-21.12
					c0.56,0.97,1.13,1.95,1.72,2.96H149.89z"/>
				<path class="st0" d="M133.44,78.66h-19.81c0.47,0.82,0.94,1.63,1.42,2.45c0.1,0.17,0.2,0.34,0.3,0.51h19.95
					C134.65,80.6,134.03,79.61,133.44,78.66z"/>
				<path class="st0" d="M131.57,75.7c-0.63-0.99-1.25-1.98-1.88-2.96h-19.43c0.56,0.99,1.12,1.98,1.69,2.96H131.57z"/>
				<path class="st0" d="M146.68,111.25c0.72-0.96,1.41-1.96,2.08-2.96h-18.39c0.58,0.99,1.17,1.98,1.76,2.96H146.68z"/>
				<path class="st0" d="M126.98,68.48c-0.25-0.39-0.48-0.79-0.72-1.19c-0.09-0.16-0.19-0.32-0.29-0.48h-4.17l-0.21,0.04
					c-3.64,0.72-7.28,1.43-10.92,2.16c-0.63,0.13-1.43,0.29-2.25,0.51l0.15,0.26h19.24C127.53,69.34,127.26,68.91,126.98,68.48z"/>
			</g>
			<g>
				<path class="st0" d="M146.57,75.7c-0.49-0.71-0.98-1.42-1.47-2.13c-0.19-0.28-0.39-0.56-0.58-0.84h-4.29
					c0.61,0.99,1.22,1.98,1.83,2.96H146.57z"/>
				<path class="st0" d="M140.42,66.83c0-0.01-0.01-0.01-0.01-0.02h-3.82c0.31,0.53,0.62,1.06,0.94,1.59
					c0.28,0.46,0.57,0.92,0.85,1.37h4.07C141.78,68.79,141.1,67.81,140.42,66.83z"/>
				<path class="st0" d="M150.66,81.63c-0.68-0.99-1.37-1.98-2.05-2.96h-4.72c0.61,0.99,1.22,1.98,1.83,2.96H150.66z"/>
				<path class="st0" d="M158.65,93.48c-0.81-1.12-1.47-2.07-2.07-2.96h-5.3c0.62,0.99,1.24,1.98,1.86,2.96H158.65z"/>
				<path class="st0" d="M154.63,87.55c-0.05-0.07-0.09-0.14-0.14-0.21c-0.59-0.91-1.2-1.84-1.81-2.76h-5.12
					c0.62,0.99,1.24,1.98,1.86,2.96H154.63z"/>
				<path class="st0" d="M157.09,96.44h-2.1c0.3,0.49,0.59,0.98,0.89,1.49C156.28,97.43,156.68,96.94,157.09,96.44z"/>
			</g>
			<g>
				<path class="st0" d="M42.23,146.81c-1.07-1-2.16-1.99-3.24-2.96h-2.81c-0.38,0.21-0.76,0.41-1.14,0.62
					c-0.75,0.42-1.5,0.82-2.26,1.23c-0.67,0.36-1.35,0.73-2.03,1.11H42.23z"/>
				<path class="st0" d="M34.65,158.66c0.55-0.98,1.13-1.96,1.75-2.96h-19.6c-1.35,0.95-2.71,1.94-4.04,2.96H34.65z"/>
				<path class="st0" d="M38.31,152.73c0.68-1,1.38-1.99,2.07-2.96H25.78c-1.5,0.94-3.05,1.93-4.63,2.96H38.31z"/>
				<path class="st0" d="M29.29,170.51c0.35-0.94,0.74-1.92,1.16-2.96H2.03c-0.01,0.01-0.02,0.02-0.03,0.02v2.94H29.29z"/>
				<path class="st0" d="M31.68,164.58c0.43-0.98,0.89-1.97,1.39-2.96H8.98c-0.4,0.32-0.8,0.64-1.21,0.96
					c-0.83,0.65-1.68,1.32-2.5,2H31.68z"/>
				<path class="st0" d="M27.25,176.44c0.15-0.47,0.29-0.92,0.44-1.37c0.17-0.53,0.35-1.06,0.53-1.6H2v2.96H27.25z"/>
				<path class="st0" d="M22.09,200.14c0.04-0.27,0.08-0.55,0.12-0.82c0.12-0.71,0.23-1.43,0.34-2.14H2v2.96H22.09z"/>
				<path class="st0" d="M23.01,194.21c0.15-0.98,0.31-1.97,0.48-2.96H2v2.96H23.01z"/>
				<path class="st0" d="M25.49,182.36c0.28-1.01,0.56-2,0.85-2.96H2v2.96H25.49z"/>
				<path class="st0" d="M24.06,188.29c0.09-0.42,0.17-0.84,0.26-1.25c0.13-0.57,0.26-1.14,0.4-1.71H2v2.96H24.06z"/>
			</g>
			<g>
				<path class="st0" d="M201.25,194.21v-2.96h-18.84c0.23,0.98,0.47,1.96,0.73,2.96H201.25z"/>
				<path class="st0" d="M201.25,146.81v-2.96h-14.78c-0.2,0.31-0.38,0.65-0.54,1.03c-0.27,0.65-0.52,1.29-0.77,1.94H201.25z"/>
				<path class="st0" d="M201.25,173.47H180.5c0,0.1,0,0.2,0,0.3c0,0.88,0.03,1.77,0.07,2.66h20.68V173.47z"/>
				<path class="st0" d="M201.25,197.18H183.9c0.01,0.03,0.02,0.06,0.03,0.1c0.26,0.96,0.56,1.92,0.86,2.87h16.46V197.18z"/>
				<path class="st0" d="M201.25,185.32h-19.91c0.02,0.17,0.04,0.34,0.07,0.51c0.1,0.54,0.17,1.09,0.24,1.64
					c0.04,0.28,0.07,0.55,0.11,0.81h19.48V185.32z"/>
				<path class="st0" d="M201.25,179.4h-20.52c0.03,0.47,0.05,0.94,0.08,1.41c0.01,0.21,0.01,0.42,0,0.63
					c-0.01,0.34-0.01,0.65,0.05,0.86c0.01,0.02,0.01,0.04,0.02,0.06h20.37V179.4z"/>
				<path class="st0" d="M201.25,170.51v-2.96h-20.58c-0.06,0.96-0.1,1.95-0.13,2.96H201.25z"/>
				<path class="st0" d="M201.25,164.58v-2.96h-19.99c-0.14,0.97-0.26,1.95-0.36,2.96H201.25z"/>
				<path class="st0" d="M201.25,158.66v-2.96H182.4c-0.24,0.99-0.45,1.97-0.64,2.96H201.25z"/>
				<path class="st0" d="M201.25,152.73v-2.96h-17.14c-0.33,0.99-0.64,1.98-0.92,2.96H201.25z"/>
				<path class="st0" d="M196.27,140.88c-1.64-0.27-3.15-0.27-4.58,0H196.27z"/>
			</g>
			<g>
				<path class="st0" d="M97.36,200.14c0.01-0.35,0.03-0.71,0.04-1.06c0-0.1,0-0.19,0-0.26c-0.08-0.01-0.17-0.01-0.28-0.02
					c-0.99-0.05-1.99-0.09-2.98-0.13c-0.83-0.03-1.66-0.06-2.48-0.1l-4.69-0.22c-4.52-0.21-9.19-0.43-13.78-0.69
					c-2.39-0.14-4.79-0.31-7.16-0.48h-40.2c-0.12,0.78-0.24,1.56-0.34,2.34c-0.03,0.21-0.05,0.42-0.07,0.62H97.36z"/>
				<path class="st0" d="M30.15,194.21c-1.28-0.13-2.57-0.25-3.85-0.38c-0.02,0.13-0.03,0.26-0.05,0.38H30.15z"/>
			</g>
			<g>
				<path class="st0" d="M180.55,197.18h-16.42c-1.46,0.2-2.94,0.36-4.42,0.47c-1.4,0.1-2.83,0.24-4.21,0.38
					c-1.39,0.14-2.83,0.28-4.25,0.39c-2.17,0.16-4.36,0.23-6.49,0.31l-1.08,0.04c-1.48,0.05-2.95,0.12-4.43,0.18
					c-3.62,0.16-7.37,0.33-11.07,0.32c-6.38-0.02-12.87-0.14-19.14-0.25c-2.77-0.05-5.55-0.1-8.32-0.15c-0.11,0-0.22,0-0.33,0
					c0,0.1,0.01,0.2,0.01,0.29c0.01,0.33,0.04,0.66,0.06,0.99h80.9C181.07,199.09,180.8,198.11,180.55,197.18z"/>
				<path class="st0" d="M179.75,194.21c-0.02-0.07-0.04-0.14-0.06-0.22c-0.01-0.03-0.02-0.06-0.02-0.08
					c-0.05,0.01-0.09,0.03-0.13,0.04c-0.28,0.09-0.57,0.17-0.85,0.26H179.75z"/>
			</g>
			<g>
				<path class="st0" d="M181.69,146.81c0.37-1.03,0.75-2.02,1.12-2.96H172.1c-0.66,0.55-1.33,1.08-2.01,1.6
					c-0.62,0.47-1.24,0.92-1.86,1.36H181.69z"/>
				<path class="st0" d="M179.87,152.73c0.25-1.01,0.53-2,0.83-2.96h-16.94c-1.42,0.87-2.85,1.68-4.3,2.43
					c-0.35,0.18-0.71,0.36-1.07,0.54H179.87z"/>
				<path class="st0" d="M177.12,170.51c0.06-0.99,0.13-1.97,0.23-2.96h-76.87c0,0.1,0,0.2,0,0.29c0,0.89-0.01,1.78-0.01,2.67
					H177.12z"/>
				<path class="st0" d="M178.61,158.66c0.11-0.54,0.22-1.08,0.33-1.61c0.09-0.45,0.18-0.9,0.28-1.35h-27.38
					c-0.16,0.06-0.31,0.13-0.47,0.2c-2.64,1.06-5.02,1.97-7.24,2.77H178.61z"/>
				<path class="st0" d="M177.67,164.58c0.04-0.33,0.08-0.66,0.12-1c0.08-0.66,0.18-1.31,0.28-1.97h-43.68
					c-1.01,0.24-2.01,0.48-2.99,0.7l-1.97,0.45c-2.75,0.63-5.56,1.28-8.4,1.81H177.67z"/>
				<path class="st0" d="M184.45,140.88c0.74-0.85,1.66-1.5,2.76-1.95c0.05-0.02,0.11-0.04,0.16-0.07c-0.4-0.32-0.81-0.63-1.21-0.95
					h-7.96c-0.02,0.02-0.03,0.04-0.05,0.05c-0.89,1.01-1.83,1.97-2.79,2.91H184.45z"/>
				<path class="st0" d="M178.52,188.29c-0.17-1-0.32-1.99-0.46-2.96h-77.63c0,0.99-0.01,1.98-0.01,2.96H178.52z"/>
				<path class="st0" d="M160.53,194.21c0.73-0.1,1.45-0.2,2.16-0.3c0.65-0.09,1.31-0.18,1.96-0.27c4.89-0.66,8.77-1.42,12.29-2.39
					H100.4c0,0.99-0.01,1.98-0.01,2.96H160.53z"/>
				<path class="st0" d="M182.39,134.96c-0.36-0.28-0.72-0.57-1.08-0.85c-0.03-0.02-0.05-0.04-0.07-0.06
					c-0.01,0.01-0.02,0.02-0.03,0.03c-0.22,0.29-0.44,0.58-0.67,0.88H182.39z"/>
				<path class="st0" d="M177.12,176.44c-0.01-0.14-0.02-0.28-0.03-0.42c-0.05-0.85-0.06-1.7-0.06-2.55h-76.57
					c0,0.99-0.01,1.98-0.01,2.96H177.12z"/>
				<path class="st0" d="M177.66,182.36c-0.12-1-0.23-1.99-0.32-2.96h-76.9c0,0.99-0.01,1.98-0.01,2.96H177.66z"/>
			</g>
		</g>
	</g>
	<g>
		<path class="st0" d="M101.62,203.25C45.59,203.25,0,157.66,0,101.62S45.59,0,101.62,0s101.62,45.59,101.62,101.62
			S157.66,203.25,101.62,203.25z M101.62,4C47.79,4,4,47.79,4,101.62s43.79,97.62,97.62,97.62c53.83,0,97.62-43.79,97.62-97.62
			S155.46,4,101.62,4z"/>
	</g>
</g>
</svg>
